HIERARCHY
ROOT Hips
{
	OFFSET 0.000000 0.000000 0.000000
	CHANNELS 6 Xposition Yposition Zposition Xrotation Yrotation Zrotation
	JOINT LeftUpLeg_virtual
	{
		OFFSET 0.000000 0.000000 0.000000
		CHANNELS 3 Xrotation Yrotation Zrotation
		JOINT LeftUpLeg
		{
			OFFSET 10.205400 -3.823500 0.155100
			CHANNELS 3 Xrotation Yrotation Zrotation
			JOINT LeftLeg
			{
				OFFSET 0.708757 -12.982077 0.567790
				CHANNELS 3 Xrotation Yrotation Zrotation
				JOINT LeftFoot
				{
					OFFSET -0.708756 -10.717838 -2.184338
					CHANNELS 3 Xrotation Yrotation Zrotation
					JOINT LeftToeBase
					{
						OFFSET 0.108149 -7.191104 7.560241
						CHANNELS 3 Xrotation Yrotation Zrotation
						JOINT LeftToe_End
						{
							OFFSET 0.070230 0.081724 4.490308
							CHANNELS 3 Xrotation Yrotation Zrotation
							End Site
							{
								OFFSET 0 0 0
							}
						}
					}
				}
			}
		}
	}
	JOINT RightUpLeg_virtual
	{
		OFFSET 0.000000 0.000000 0.000000
		CHANNELS 3 Xrotation Yrotation Zrotation
		JOINT RightUpLeg
		{
			OFFSET -10.205400 -3.823500 0.005500
			CHANNELS 3 Xrotation Yrotation Zrotation
			JOINT RightLeg
			{
				OFFSET -0.708756 -12.982134 0.610632
				CHANNELS 3 Xrotation Yrotation Zrotation
				JOINT RightFoot
				{
					OFFSET 0.708754 -10.717769 -1.945823
					CHANNELS 3 Xrotation Yrotation Zrotation
					JOINT RightToeBase
					{
						OFFSET -0.108140 -7.191069 7.372968
						CHANNELS 3 Xrotation Yrotation Zrotation
						JOINT RightToe_End
						{
							OFFSET -0.070227 0.081735 4.479403
							CHANNELS 3 Xrotation Yrotation Zrotation
							End Site
							{
								OFFSET 0 0 0
							}
						}
					}
				}
			}
		}
	}
	JOINT Spine_virtual
	{
		OFFSET 0.000000 0.000000 0.000000
		CHANNELS 3 Xrotation Yrotation Zrotation
		JOINT Spine
		{
			OFFSET 0.000000 6.876099 0.125700
			CHANNELS 3 Xrotation Yrotation Zrotation
			JOINT Spine1
			{
				OFFSET 0.000000 5.730043 0.104720
				CHANNELS 3 Xrotation Yrotation Zrotation
				JOINT Spine1_split
				{
					OFFSET 0.000000 5.730043 0.104720
					CHANNELS 3 Xrotation Yrotation Zrotation
					JOINT Spine2
					{
						OFFSET 0.000000 5.730043 0.104720
						CHANNELS 3 Xrotation Yrotation Zrotation
						JOINT Neck_virtual
						{
							OFFSET 0.000000 0.000000 0.000000
							CHANNELS 3 Xrotation Yrotation Zrotation
							JOINT Neck
							{
								OFFSET 0.000000 10.314075 0.188496
								CHANNELS 3 Xrotation Yrotation Zrotation
								JOINT Head
								{
									OFFSET 0.000000 7.643700 -2.377400
									CHANNELS 3 Xrotation Yrotation Zrotation
									JOINT HeadTop_End
									{
										OFFSET 0.000000 43.788605 -13.619600
										CHANNELS 3 Xrotation Yrotation Zrotation
										End Site
										{
											OFFSET 0 0 0
										}
									}
								}
							}
						}
						JOINT LeftShoulder_virtual
						{
							OFFSET 0.000000 0.000000 0.000000
							CHANNELS 3 Xrotation Yrotation Zrotation
							JOINT LeftShoulder
							{
								OFFSET 2.196100 4.412489 0.087492
								CHANNELS 3 Xrotation Yrotation Zrotation
								JOINT LeftShoulder_split
								{
									OFFSET 2.196100 4.412489 0.087492
									CHANNELS 3 Xrotation Yrotation Zrotation
									JOINT LeftArm
									{
										OFFSET 8.771219 -2.981674 -0.026999
										CHANNELS 3 Xrotation Yrotation Zrotation
										JOINT LeftForeArm
										{
											OFFSET 8.512804 0.000000 -0.000000
											CHANNELS 3 Xrotation Yrotation Zrotation
											JOINT LeftHand
											{
												OFFSET 18.484802 0.000000 -0.000000
												CHANNELS 3 Xrotation Yrotation Zrotation
												End Site
												{
													OFFSET 0 0 0
												}
											}
										}
									}
								}
							}
						}
						JOINT RightShoulder_virtual
						{
							OFFSET 0.000000 0.000000 0.000000
							CHANNELS 3 Xrotation Yrotation Zrotation
							JOINT RightShoulder
							{
								OFFSET -2.196100 4.412496 0.070690
								CHANNELS 3 Xrotation Yrotation Zrotation
								JOINT RightShoulder_split
								{
									OFFSET -2.196100 4.412496 0.070690
									CHANNELS 3 Xrotation Yrotation Zrotation
									JOINT RightArm
									{
										OFFSET -8.771282 -2.981682 -0.094208
										CHANNELS 3 Xrotation Yrotation Zrotation
										JOINT RightForeArm
										{
											OFFSET -8.494598 0.000000 0.000000
											CHANNELS 3 Xrotation Yrotation Zrotation
											JOINT RightHand
											{
												OFFSET -18.483803 0.000000 0.000001
												CHANNELS 3 Xrotation Yrotation Zrotation
												End Site
												{
													OFFSET 0 0 0
												}
											}
										}
									}
								}
							}
						}
					}
				}
			}
		}
	}
}
MOTION
Frames: 4
Frame Time: 0.03333333
-0.064985 32.890884 5.192385 0.000000 0.000000 0.000000 2.889815 33.665777 -2.058204 -35.436288 6.549004 5.924943 25.717211 -18.411748 -4.292855 -0.922109 -12.077052 -0.364612 0.366010 -0.484392 0.152070 0.000000 0.000000 0.000000 2.855646 33.271504 -2.185202 -24.702206 13.379042 4.063125 30.880815 20.790356 -4.211365 -8.854931 2.207756 1.773686 -1.692917 -0.304270 -0.284031 0.000000 0.000000 0.000000 3.588869 34.457778 -2.808775 7.734931 1.034783 -0.837572 0.620876 0.716309 1.276680 0.604314 0.330411 0.567661 0.000000 0.000000 0.000000 1.184159 1.022206 1.468346 -3.580264 29.256996 -8.255774 -6.612330 24.650771 -3.263893 0.000000 0.000000 0.000000 1.309887 1.002074 1.761156 0.170035 -3.153262 -1.604163 4.701477 0.434949 -2.302769 -63.005080 18.525426 -19.211497 11.414708 -74.655976 13.462648 0.000000 0.000000 0.000000 1.313343 0.960650 1.380653 4.721376 6.535143 9.054615 -2.860701 -0.539399 0.834994 11.547150 21.308085 63.093080 10.385673 22.800109 -4.233747 0.000000 0.000000 0.000000 
-0.419058 32.974300 5.365144 0.000000 0.000000 0.000000 3.367531 39.164547 -2.776608 -36.344960 6.914742 6.972856 24.408912 -19.009745 -4.039531 0.397968 -11.046213 -0.681264 0.483343 -0.527843 0.368911 0.000000 0.000000 0.000000 3.508492 38.599311 -2.975631 -22.671160 12.802689 3.522886 29.494604 18.001268 -2.356640 -9.802029 0.932912 0.209857 -0.669930 -0.507692 0.194391 0.000000 0.000000 0.000000 4.092211 39.691162 -3.530273 7.705644 0.704429 -1.296198 0.589086 0.453750 1.300984 0.647723 0.403109 0.535257 0.000000 0.000000 0.000000 1.197492 0.769323 1.560031 -3.716846 27.465101 -8.328540 -7.578441 22.407153 -1.712963 0.000000 0.000000 0.000000 1.232614 0.746472 1.881125 0.193361 -6.379037 -0.911051 4.557172 0.397016 -2.158583 -63.108230 16.392184 -20.637452 10.681140 -72.918430 12.950143 0.000000 0.000000 0.000000 1.241075 0.695540 1.512323 4.657621 6.388928 8.723181 -3.223929 -0.388897 0.827297 10.671602 18.190853 63.548749 10.521330 23.309737 -4.439306 0.000000 0.000000 0.000000 
-0.792187 33.063198 5.377286 0.000000 0.000000 0.000000 3.879189 44.091146 -3.644851 -36.981404 7.078805 8.555231 23.652699 -18.298205 -3.556467 0.489681 -9.366075 -0.704561 0.509484 -0.545254 0.476484 0.000000 0.000000 0.000000 4.256788 43.347796 -3.930238 -20.857477 11.818972 3.031944 28.382125 15.035987 -0.773592 -11.007493 -0.360341 -0.886556 0.203727 -0.458082 0.579439 0.000000 0.000000 0.000000 4.669701 44.354962 -4.386896 7.716116 0.489812 -1.772418 0.603226 0.272327 1.377999 0.676702 0.458554 0.557532 0.000000 0.000000 0.000000 1.245508 0.602081 1.694108 -3.980202 25.746705 -8.266898 -8.469865 20.164573 -0.216311 0.000000 0.000000 0.000000 1.191157 0.576749 2.030260 0.266419 -9.176147 -0.230275 4.252792 0.236671 -1.882786 -63.251424 14.363509 -21.941624 9.888701 -71.300584 12.402129 0.000000 0.000000 0.000000 1.174807 0.521191 1.692772 4.574497 6.349870 8.407177 -3.381957 -0.308060 0.704232 9.150680 14.206323 63.991954 10.625841 23.980132 -4.626835 0.000000 0.000000 0.000000 
-1.180579 33.139618 5.275769 0.000000 0.000000 0.000000 4.372989 48.429033 -4.558971 -37.258767 6.942921 10.570928 23.728537 -16.353968 -2.922516 -0.549665 -7.171655 -0.309081 0.831361 -0.522705 0.319149 0.000000 0.000000 0.000000 4.982072 47.526553 -4.951645 -19.313594 10.760616 2.744716 27.552689 12.328312 0.302321 -12.083608 -1.531912 -1.092366 0.278445 -0.206015 0.729132 0.000000 0.000000 0.000000 5.204161 48.426830 -5.265201 7.776096 0.355844 -2.227608 0.660863 0.147459 1.515442 0.765701 0.475950 0.579860 0.000000 0.000000 0.000000 1.321995 0.491902 1.870427 -4.284033 24.137062 -8.093484 -9.225754 18.032712 1.143969 0.000000 0.000000 0.000000 1.182742 0.458448 2.207297 0.376185 -11.454990 0.394689 3.793230 -0.080944 -1.654697 -63.531080 12.549249 -23.182946 9.265003 -69.828801 12.019579 0.000000 0.000000 0.000000 1.118107 0.413243 1.922702 4.496890 6.398655 8.115306 -3.343033 -0.252810 0.538342 7.041077 9.523423 64.362000 10.612332 24.637898 -4.713528 0.000000 0.000000 0.000000 
